<?xml version="1.0" encoding="UTF-8"?>
<svg id="Layer_1" xmlns="http://www.w3.org/2000/svg" version="1.1" viewBox="0 0 1200 1000">
  <!-- Generator: Adobe Illustrator 30.2.1, SVG Export Plug-In . SVG Version: 2.1.1 Build 1)  -->
  <defs>
    <style>
      .st0 {
        fill: #fff;
      }

      .st1 {
        fill: #1d1d1b;
        font-family: UbuntuMono-Bold, 'Ubuntu Mono';
        font-size: 35px;
        font-weight: 700;
      }

      .st2 {
        stroke: red;
        stroke-width: 2px;
      }

      .st2, .st3, .st4 {
        fill: none;
      }

      .st3, .st4 {
        stroke: #000;
      }

      .st4 {
        stroke-width: 7px;
      }
    </style>
  </defs>
  <line class="st3" x1="30" y1="0" x2="30" y2="1000"/>
  <line class="st3" x1="157" y1="0" x2="157" y2="1000"/>
  <line class="st3" x1="284" y1="0" x2="284" y2="1000"/>
  <line class="st3" x1="411" y1="0" x2="411" y2="1000"/>
  <line class="st3" x1="538" y1="0" x2="538" y2="1000"/>
  <line class="st3" x1="665" y1="0" x2="665" y2="1000"/>
  <line class="st3" x1="792" y1="0" x2="792" y2="1000"/>
  <line class="st3" x1="919" y1="0" x2="919" y2="1000"/>
  <line class="st3" x1="1046" y1="0" x2="1046" y2="1000"/>
  <line class="st3" x1="1173" y1="0" x2="1173" y2="1000"/>
  <line class="st3" y1="32" x2="1200" y2="32"/>
  <line class="st3" y1="159" x2="1200" y2="159"/>
  <line class="st3" y1="286" x2="1200" y2="286"/>
  <line class="st3" y1="413" x2="1200" y2="413"/>
  <line class="st3" y1="540" x2="1200" y2="540"/>
  <line class="st3" y1="667" x2="1200" y2="667"/>
  <line class="st3" y1="794" x2="1200" y2="794"/>
  <line class="st3" y1="921" x2="1200" y2="921"/>
  <path class="st4" d="M0,493.95c10.99,16.11,22,33.49,33,50.76M33,544.71c.9,1.41,18.01,28.16,27,41.34M60,586.05c50.32,73.57,92.59,103.4,143,60.94M203,646.99c50.46-42.9,102.26-155.39,153-205.72M356,441.27c26.29-25.88,51.23-34.6,77.5-23.38M433.5,417.89c20.72,9.03,41.17,30.13,62,58.38M495.5,476.27c34.99,47.63,70.16,113.12,105,152.41M600.5,628.68c28.91,32.41,56.13,45.5,85,34.26M685.5,662.94c19.89-7.93,39.51-27.01,59.5-53.2M745,609.74c33.27-43.76,66.77-105.68,100-147.16M845,462.58c27.65-34.35,53.93-52.91,81.5-49.03M926.5,413.55c21.65,3.25,42.76,20.09,64.5,46.57M991,460.12c38.72,47.4,77.85,123.32,116.5,167.43M1107.5,627.55c31.39,35.61,60.64,48.4,92,32.69"/>
  <line class="st2" y1="540" x2="1200" y2="540"/>
  <line class="st2" x1="30" y1="0" x2="30" y2="1000"/>
  <path d="M1193.59,6.37v987.89H6.38V6.37h1187.21M1199.59.37H.38v999.89h1199.21V.37h0Z"/>
  <rect class="st0" x="91.28" y="41.71" width="1043" height="106.25"/>
  <text class="st1" transform="translate(263.5 107.62)"><tspan x="0" y="0">cos(2.0 * pi * 2.0 * x / 8.0 + pi/2)</tspan></text>
</svg>