<?xml version="1.0" encoding="UTF-8"?>
<svg id="Layer_1" xmlns="http://www.w3.org/2000/svg" version="1.1" viewBox="0 0 1200 1000">
  <!-- Generator: Adobe Illustrator 30.2.1, SVG Export Plug-In . SVG Version: 2.1.1 Build 1)  -->
  <defs>
    <style>
      .st0 {
        fill: #fff;
      }

      .st1 {
        fill: #1d1d1b;
        font-family: UbuntuMono-Bold, 'Ubuntu Mono';
        font-size: 35px;
        font-weight: 700;
      }

      .st2 {
        stroke: red;
        stroke-width: 2px;
      }

      .st2, .st3, .st4 {
        fill: none;
      }

      .st3, .st4 {
        stroke: #000;
      }

      .st4 {
        stroke-width: 7px;
      }
    </style>
  </defs>
  <line class="st3" x1="30" y1="0" x2="30" y2="1000"/>
  <line class="st3" x1="157" y1="0" x2="157" y2="1000"/>
  <line class="st3" x1="284" y1="0" x2="284" y2="1000"/>
  <line class="st3" x1="411" y1="0" x2="411" y2="1000"/>
  <line class="st3" x1="538" y1="0" x2="538" y2="1000"/>
  <line class="st3" x1="665" y1="0" x2="665" y2="1000"/>
  <line class="st3" x1="792" y1="0" x2="792" y2="1000"/>
  <line class="st3" x1="919" y1="0" x2="919" y2="1000"/>
  <line class="st3" x1="1046" y1="0" x2="1046" y2="1000"/>
  <line class="st3" x1="1173" y1="0" x2="1173" y2="1000"/>
  <line class="st3" y1="32" x2="1200" y2="32"/>
  <line class="st3" y1="159" x2="1200" y2="159"/>
  <line class="st3" y1="286" x2="1200" y2="286"/>
  <line class="st3" y1="413" x2="1200" y2="413"/>
  <line class="st3" y1="540" x2="1200" y2="540"/>
  <line class="st3" y1="667" x2="1200" y2="667"/>
  <line class="st3" y1="794" x2="1200" y2="794"/>
  <line class="st3" y1="921" x2="1200" y2="921"/>
  <line class="st2" y1="540" x2="1200" y2="540"/>
  <line class="st2" x1="30" y1="0" x2="30" y2="1000"/>
  <path d="M1193.59,6.37v987.89H6.38V6.37h1187.21M1199.59.37H.38v999.89h1199.21V.37h0Z"/>
  <path class="st4" d="M0,432.17c23.62-29.18,44.9-24.36,68.5,11.87M68.5,444.04c28.86,44.79,58.51,134.68,87.5,184.08M156,628.12c14.92,25.21,29.14,39.14,44,38.87M200,666.99c16.72-.67,32.69-19.48,49.5-51.14M249.5,615.85c24.57-46.59,49.5-117.72,74-160.81M323.5,455.04c13.35-23.29,26.24-37.91,39.5-41.34M363,413.7c18.19-4.3,35.27,12.93,53.5,46.11M416.5,459.81c25.71,47.15,51.85,122.95,77.5,167.17M494,626.98c13.71,23.43,26.87,37.52,40.5,39.75M534.5,666.73c17.81,2.53,34.63-15.59,52.5-48.69M587,618.04c24.05-44.87,48.46-114.14,72.5-158.23M659.5,459.81c13.34-24.28,26.27-40.35,39.5-45.29M699,414.52c18.39-6.48,35.59,9.02,54,41.4M753,455.92c23.52,41.69,47.41,108.9,71,155.13M824,611.05c13.66,26.58,26.97,45.45,40.5,52.73M864.5,663.78c19.12,9.88,36.88-3.93,56-36.51M920.5,627.27c24.82-42.67,50.09-115.03,75-162.49M995.5,464.78c13.84-26.19,27.28-43.99,41-49.81M1036.5,414.97c18.05-7.27,34.94,6.59,53,37.19M1089.5,452.16c23,39.31,46.37,104.29,69.5,151.56M1159,603.72c13.63,27.72,27.01,48.49,40.5,57.84"/>
  <rect class="st0" x="47.02" y="42.5" width="1111.55" height="106.25"/>
  <text class="st1" transform="translate(-465.57 -281.08)"><tspan x="0" y="0">cos(2.0 * pi * 2.0 * x / 8.0 + pi/2)</tspan></text>
  <text class="st1" transform="translate(349.04 105.89)"><tspan x="0" y="0">cos(3.0 * pi * 2.0 * x / 8.0)</tspan></text>
  <text class="st1" transform="translate(-157.7 -149.19)"><tspan x="0" y="0">cos(3.0 * pi * 2.0 * x / 8.0) + cos(2.0 * pi * 2.0 * x / 8.0)</tspan></text>
</svg>