<?xml version="1.0" encoding="UTF-8"?>
       <svg width="1200" height="1000" xmlns="http://www.w3.org/2000/svg">
<line x1="30.0" y1="0" x2="30.0" y2="1000" style="stroke:black;stroke-width:1" /><line x1="157.0" y1="0" x2="157.0" y2="1000" style="stroke:black;stroke-width:1" /><line x1="284.0" y1="0" x2="284.0" y2="1000" style="stroke:black;stroke-width:1" /><line x1="411.0" y1="0" x2="411.0" y2="1000" style="stroke:black;stroke-width:1" /><line x1="538.0" y1="0" x2="538.0" y2="1000" style="stroke:black;stroke-width:1" /><line x1="665.0" y1="0" x2="665.0" y2="1000" style="stroke:black;stroke-width:1" /><line x1="792.0" y1="0" x2="792.0" y2="1000" style="stroke:black;stroke-width:1" /><line x1="919.0" y1="0" x2="919.0" y2="1000" style="stroke:black;stroke-width:1" /><line x1="1046.0" y1="0" x2="1046.0" y2="1000" style="stroke:black;stroke-width:1" /><line x1="1173.0" y1="0" x2="1173.0" y2="1000" style="stroke:black;stroke-width:1" /><line x1="0" y1="32.0" x2="1200" y2="32.0" style="stroke:black;stroke-width:1" /><line x1="0" y1="159.0" x2="1200" y2="159.0" style="stroke:black;stroke-width:1" /><line x1="0" y1="286.0" x2="1200" y2="286.0" style="stroke:black;stroke-width:1" /><line x1="0" y1="413.0" x2="1200" y2="413.0" style="stroke:black;stroke-width:1" /><line x1="0" y1="540.0" x2="1200" y2="540.0" style="stroke:black;stroke-width:1" /><line x1="0" y1="667.0" x2="1200" y2="667.0" style="stroke:black;stroke-width:1" /><line x1="0" y1="794.0" x2="1200" y2="794.0" style="stroke:black;stroke-width:1" /><line x1="0" y1="921.0" x2="1200" y2="921.0" style="stroke:black;stroke-width:1" /><path d="M 0.00,386.12 C 22.99,391.41 44.70,432.72 68.00,500.79M 68.00,500.79 C 94.25,577.79 120.87,681.56 147.00,737.73M 147.00,737.73 C 160.20,765.82 172.85,781.52 186.00,782.05M 186.00,782.05 C 205.65,782.26 224.25,747.55 244.00,686.13M 244.00,686.13 C 271.36,600.53 299.18,468.97 326.50,386.19M 326.50,386.19 C 342.05,339.40 357.15,309.17 372.50,300.45M 372.50,300.45 C 389.68,291.22 405.84,308.63 423.00,346.64M 423.00,346.64 C 449.66,406.24 476.80,513.37 503.50,589.30M 503.50,589.30 C 520.90,638.55 537.88,673.26 555.00,687.24M 555.00,687.24 C 556.49,688.46 584.40,695.52 599.50,680.47M 599.50,680.47 C 634.02,645.55 668.84,558.50 702.00,527.55M 702.00,527.55 C 703.26,526.38 726.85,510.90 739.50,511.74M 739.50,511.74 C 768.06,514.00 795.80,548.00 824.50,562.33M 824.50,562.33 C 843.81,571.81 861.66,570.65 881.00,553.36M 881.00,553.36 C 925.81,512.71 972.29,374.09 1017.50,386.50M 1017.50,386.50 C 1040.44,393.30 1062.21,436.34 1085.50,505.21M 1085.50,505.21 C 1110.76,580.20 1136.35,678.76 1161.50,734.47M 1161.50,734.47 C 1174.35,762.65 1186.73,779.35 1199.50,781.80" stroke="black" fill="none" stroke-width="2"/>
<line x1="0" y1="540" x2="1200" y2="540" style="stroke:red;stroke-width:2" />
<line x1="30" y1="0" x2="30" y2="1000" style="stroke:red;stroke-width:2" />
</svg>